HIERARCHY
ROOT Hips
{
	OFFSET 0.000000 0.000000 0.000000
	CHANNELS 6 Xposition Yposition Zposition Xrotation Yrotation Zrotation
	JOINT LeftUpLeg_virtual
	{
		OFFSET 0.000000 0.000000 0.000000
		CHANNELS 3 Xrotation Yrotation Zrotation
		JOINT LeftUpLeg
		{
			OFFSET 10.205400 -3.823500 0.155100
			CHANNELS 3 Xrotation Yrotation Zrotation
			JOINT LeftLeg
			{
				OFFSET 0.708757 -12.982077 0.567790
				CHANNELS 3 Xrotation Yrotation Zrotation
				JOINT LeftFoot
				{
					OFFSET -0.708756 -10.717838 -2.184338
					CHANNELS 3 Xrotation Yrotation Zrotation
					JOINT LeftToeBase
					{
						OFFSET 0.108149 -7.191104 7.560241
						CHANNELS 3 Xrotation Yrotation Zrotation
						JOINT LeftToe_End
						{
							OFFSET 0.070230 0.081724 4.490308
							CHANNELS 3 Xrotation Yrotation Zrotation
							End Site
							{
								OFFSET 0 0 0
							}
						}
					}
				}
			}
		}
	}
	JOINT RightUpLeg_virtual
	{
		OFFSET 0.000000 0.000000 0.000000
		CHANNELS 3 Xrotation Yrotation Zrotation
		JOINT RightUpLeg
		{
			OFFSET -10.205400 -3.823500 0.005500
			CHANNELS 3 Xrotation Yrotation Zrotation
			JOINT RightLeg
			{
				OFFSET -0.708756 -12.982134 0.610632
				CHANNELS 3 Xrotation Yrotation Zrotation
				JOINT RightFoot
				{
					OFFSET 0.708754 -10.717769 -1.945823
					CHANNELS 3 Xrotation Yrotation Zrotation
					JOINT RightToeBase
					{
						OFFSET -0.108140 -7.191069 7.372968
						CHANNELS 3 Xrotation Yrotation Zrotation
						JOINT RightToe_End
						{
							OFFSET -0.070227 0.081735 4.479403
							CHANNELS 3 Xrotation Yrotation Zrotation
							End Site
							{
								OFFSET 0 0 0
							}
						}
					}
				}
			}
		}
	}
	JOINT Spine_virtual
	{
		OFFSET 0.000000 0.000000 0.000000
		CHANNELS 3 Xrotation Yrotation Zrotation
		JOINT Spine
		{
			OFFSET 0.000000 6.876099 0.125700
			CHANNELS 3 Xrotation Yrotation Zrotation
			JOINT Spine1
			{
				OFFSET 0.000000 5.730043 0.104720
				CHANNELS 3 Xrotation Yrotation Zrotation
				JOINT Spine1_split
				{
					OFFSET 0.000000 5.730043 0.104720
					CHANNELS 3 Xrotation Yrotation Zrotation
					JOINT Spine2
					{
						OFFSET 0.000000 5.730043 0.104720
						CHANNELS 3 Xrotation Yrotation Zrotation
						JOINT Neck_virtual
						{
							OFFSET 0.000000 0.000000 0.000000
							CHANNELS 3 Xrotation Yrotation Zrotation
							JOINT Neck
							{
								OFFSET 0.000000 10.314075 0.188496
								CHANNELS 3 Xrotation Yrotation Zrotation
								JOINT Head
								{
									OFFSET 0.000000 7.643700 -2.377400
									CHANNELS 3 Xrotation Yrotation Zrotation
									JOINT HeadTop_End
									{
										OFFSET 0.000000 43.788605 -13.619600
										CHANNELS 3 Xrotation Yrotation Zrotation
										End Site
										{
											OFFSET 0 0 0
										}
									}
								}
							}
						}
						JOINT LeftShoulder_virtual
						{
							OFFSET 0.000000 0.000000 0.000000
							CHANNELS 3 Xrotation Yrotation Zrotation
							JOINT LeftShoulder
							{
								OFFSET 2.196100 4.412489 0.087492
								CHANNELS 3 Xrotation Yrotation Zrotation
								JOINT LeftShoulder_split
								{
									OFFSET 2.196100 4.412489 0.087492
									CHANNELS 3 Xrotation Yrotation Zrotation
									JOINT LeftArm
									{
										OFFSET 8.771219 -2.981674 -0.026999
										CHANNELS 3 Xrotation Yrotation Zrotation
										JOINT LeftForeArm
										{
											OFFSET 8.512804 0.000000 -0.000000
											CHANNELS 3 Xrotation Yrotation Zrotation
											JOINT LeftHand
											{
												OFFSET 18.484802 0.000000 -0.000000
												CHANNELS 3 Xrotation Yrotation Zrotation
												End Site
												{
													OFFSET 0 0 0
												}
											}
										}
									}
								}
							}
						}
						JOINT RightShoulder_virtual
						{
							OFFSET 0.000000 0.000000 0.000000
							CHANNELS 3 Xrotation Yrotation Zrotation
							JOINT RightShoulder
							{
								OFFSET -2.196100 4.412496 0.070690
								CHANNELS 3 Xrotation Yrotation Zrotation
								JOINT RightShoulder_split
								{
									OFFSET -2.196100 4.412496 0.070690
									CHANNELS 3 Xrotation Yrotation Zrotation
									JOINT RightArm
									{
										OFFSET -8.771282 -2.981682 -0.094208
										CHANNELS 3 Xrotation Yrotation Zrotation
										JOINT RightForeArm
										{
											OFFSET -8.494598 0.000000 0.000000
											CHANNELS 3 Xrotation Yrotation Zrotation
											JOINT RightHand
											{
												OFFSET -18.483803 0.000000 0.000001
												CHANNELS 3 Xrotation Yrotation Zrotation
												End Site
												{
													OFFSET 0 0 0
												}
											}
										}
									}
								}
							}
						}
					}
				}
			}
		}
	}
}
MOTION
Frames: 10
Frame Time: 0.03333333
-0.041420 16.145523 -3.893883 0.000000 0.000000 0.000000 68.692715 -1.222626 1.069563 5.604178 13.170294 10.853010 15.408019 9.624497 3.455562 -57.380699 12.136460 -9.801804 -40.583720 1.407922 -7.323389 0.000000 0.000000 0.000000 70.686106 -5.023411 1.859145 7.305292 -5.730985 -9.424062 9.799938 5.547082 2.180174 -33.441306 -2.387718 13.509629 -58.929438 -3.563215 9.088701 0.000000 0.000000 0.000000 73.502159 -2.365250 0.485377 -2.145003 1.813488 -0.987445 1.634396 1.355340 0.174652 0.742568 -0.747174 0.890547 0.000000 0.000000 0.000000 1.870156 -0.368822 0.230958 -9.638771 0.623266 3.134777 9.452067 9.276723 -5.537432 0.000000 0.000000 0.000000 2.063491 -0.628283 1.065932 2.686110 1.764549 1.618664 0.059429 1.265384 -2.781550 -43.210580 -56.952706 -49.119230 1.040281 -20.556199 -0.117467 0.000000 0.000000 0.000000 1.266266 -0.348164 1.128741 0.160128 5.021483 15.260774 4.461857 8.616313 -2.676936 -55.665642 56.830688 52.210229 -0.894583 20.429494 0.438651 0.000000 0.000000 0.000000 
-0.135139 16.162033 -3.943802 0.000000 0.000000 0.000000 68.679922 -1.096313 1.059141 5.836097 13.505315 10.879666 15.583329 9.698089 3.298739 -57.331406 11.797111 -9.758552 -41.230731 1.263838 -6.932824 0.000000 0.000000 0.000000 70.746252 -5.290031 2.109291 7.064660 -5.601424 -9.424929 9.941328 5.575760 2.252216 -33.700372 -2.486795 13.511580 -58.158603 -3.449233 9.069090 0.000000 0.000000 0.000000 73.856085 -2.320100 0.631291 -2.033271 1.834067 -1.031355 1.740254 1.351806 0.169807 0.801251 -1.061967 0.875398 0.000000 0.000000 0.000000 1.832470 -0.370247 0.285459 -9.965519 0.475160 3.066849 9.420327 9.229698 -5.902622 0.000000 0.000000 0.000000 2.134168 -0.601167 1.065408 2.666602 1.879527 1.669190 0.608927 1.531980 -2.379125 -43.747789 -56.937078 -49.595055 1.151752 -19.903289 -0.239249 0.000000 0.000000 0.000000 1.411438 -0.287542 1.180743 0.100446 5.288748 15.184076 4.480073 8.433155 -2.859508 -55.391130 56.067438 51.424822 -0.856289 20.772680 0.622705 0.000000 0.000000 0.000000 
-0.213475 16.192787 -3.981850 0.000000 0.000000 0.000000 68.704477 -1.177653 1.189853 6.075551 13.727055 10.933691 15.530033 9.837089 3.152772 -57.018511 11.304640 -9.732800 -42.324152 1.096717 -6.393273 0.000000 0.000000 0.000000 70.890458 -5.563749 2.373193 6.750309 -5.576174 -9.293436 9.827510 5.550660 2.298040 -33.698097 -2.717697 13.791862 -58.219016 -3.362441 8.921223 0.000000 0.000000 0.000000 74.065588 -2.223744 0.772980 -1.804155 1.787699 -1.133748 1.881065 1.341778 0.181124 0.893992 -1.321232 0.842462 0.000000 0.000000 0.000000 1.786997 -0.397590 0.375043 -10.041784 0.402067 2.932609 9.250988 9.044969 -6.076096 0.000000 0.000000 0.000000 2.256794 -0.620115 1.069890 2.666840 1.915789 2.041027 1.159417 1.837112 -1.970313 -44.043587 -57.265815 -50.073739 1.236671 -19.731187 -0.380602 0.000000 0.000000 0.000000 1.627557 -0.242786 1.257520 -0.066832 5.891033 15.047928 4.606000 8.244907 -2.929384 -53.207768 54.654774 48.754901 -0.815151 22.780394 0.792317 0.000000 0.000000 0.000000 
-0.276857 16.235006 -4.010563 0.000000 0.000000 0.000000 68.705590 -1.366362 1.384649 6.368431 13.901384 10.888619 15.047919 10.151079 3.053068 -56.759664 10.691816 -9.323598 -43.164449 0.948593 -5.897029 0.000000 0.000000 0.000000 71.053700 -5.776921 2.620790 6.571410 -5.668848 -8.976383 9.434380 5.404081 2.273358 -33.667908 -3.068562 14.157902 -58.797998 -3.326398 8.720158 0.000000 0.000000 0.000000 74.125222 -2.215414 1.008761 -1.502958 1.678871 -1.281859 2.028893 1.305914 0.197912 0.904393 -1.458667 0.859579 0.000000 0.000000 0.000000 1.766464 -0.459060 0.488046 -9.862552 0.420540 2.747167 8.890422 8.730438 -6.056732 0.000000 0.000000 0.000000 2.407904 -0.676294 1.086691 2.676635 1.976859 2.761665 1.700123 2.021300 -1.632294 -44.253001 -57.766441 -50.556056 1.328255 -20.245584 -0.517892 0.000000 0.000000 0.000000 1.877422 -0.224396 1.350194 -0.353589 6.882089 14.839001 4.743955 8.181859 -2.932436 -49.749909 52.764437 44.942761 -0.766421 26.015115 0.940228 0.000000 0.000000 0.000000 
-0.335350 16.286386 -4.026907 0.000000 0.000000 0.000000 68.713766 -1.569783 1.615511 6.789359 13.906075 10.721642 13.964987 10.484910 3.020252 -56.660493 10.062267 -8.750065 -43.228827 0.854008 -5.556803 0.000000 0.000000 0.000000 71.163222 -5.972568 2.881388 6.545626 -5.864130 -8.511222 8.948360 5.027947 2.158617 -33.878889 -3.488284 14.210206 -58.966642 -3.316376 8.604529 0.000000 0.000000 0.000000 74.050268 -2.290336 1.289075 -1.177230 1.539854 -1.459876 2.171343 1.226171 0.207595 0.927023 -1.708297 0.815251 0.000000 0.000000 0.000000 1.806073 -0.554957 0.611431 -9.407503 0.548531 2.528776 8.368015 8.389445 -5.885268 0.000000 0.000000 0.000000 2.590515 -0.765124 1.105743 2.683463 2.129326 3.775805 2.083996 2.058191 -1.416433 -44.314660 -58.137231 -50.838372 1.468911 -21.342478 -0.619724 0.000000 0.000000 0.000000 2.128945 -0.248849 1.452643 -0.771972 8.321167 14.514864 4.836840 8.117788 -2.963952 -45.749720 50.592307 40.690695 -0.737837 29.955181 1.057933 0.000000 0.000000 0.000000 
-0.390061 16.366753 -4.021629 0.000000 0.000000 0.000000 68.666105 -1.805250 1.886927 7.181902 13.592598 10.536498 12.536336 10.491869 3.067493 -56.331306 9.634860 -8.613344 -42.493141 0.785850 -5.266709 0.000000 0.000000 0.000000 71.208212 -6.143920 3.137071 6.525705 -6.207748 -7.970409 8.517463 4.368398 2.008733 -34.311674 -3.970857 13.903640 -58.354022 -3.316724 8.630155 0.000000 0.000000 0.000000 73.870572 -2.402937 1.537170 -0.865512 1.424130 -1.620393 2.314143 1.106507 0.201239 0.949261 -1.843918 0.662509 0.000000 0.000000 0.000000 1.923019 -0.669754 0.725492 -8.733511 0.736291 2.297169 7.761896 8.014994 -5.596385 0.000000 0.000000 0.000000 2.807784 -0.871227 1.106970 2.677380 2.344973 5.002094 2.287286 1.984030 -1.241868 -44.014374 -58.162783 -50.683600 1.684765 -22.890705 -0.681477 0.000000 0.000000 0.000000 2.396518 -0.299488 1.549151 -1.292936 10.265392 14.096769 4.691686 7.907563 -3.060742 -41.727641 48.251704 36.518634 -0.725238 33.998834 1.151102 0.000000 0.000000 0.000000 
-0.439948 16.478916 -4.007326 0.000000 0.000000 0.000000 68.602072 -2.079001 2.167279 7.488751 12.883020 10.341670 11.114932 10.184456 3.226898 -55.683438 9.452970 -8.803336 -41.241553 0.665216 -4.902797 0.000000 0.000000 0.000000 71.245198 -6.375508 3.381150 6.331180 -6.680770 -7.376901 8.091968 3.634080 1.805629 -34.760988 -4.492050 13.672311 -57.430812 -3.322757 8.711799 0.000000 0.000000 0.000000 73.732739 -2.610451 1.795489 -0.583460 1.357126 -1.729718 2.481435 0.967949 0.170074 0.933213 -1.952392 0.616389 0.000000 0.000000 0.000000 2.127693 -0.788705 0.822308 -7.977958 0.942199 2.109394 7.151366 7.618411 -5.232480 0.000000 0.000000 0.000000 3.091911 -0.980647 1.059858 2.664393 2.499645 6.396077 2.366456 1.770687 -1.165394 -43.136415 -57.731382 -49.832626 1.927105 -24.694153 -0.712166 0.000000 0.000000 0.000000 2.694429 -0.346271 1.636875 -1.881562 12.686304 13.683501 4.291092 7.577195 -3.263791 -38.050649 45.761222 32.680669 -0.722327 37.663121 1.243144 0.000000 0.000000 0.000000 
-0.496045 16.649143 -3.995802 0.000000 0.000000 0.000000 68.557136 -2.396020 2.438083 7.719288 11.607521 9.984993 9.964667 9.743770 3.590109 -54.770642 9.669789 -9.188936 -39.682074 0.510686 -4.497648 0.000000 0.000000 0.000000 71.344393 -6.761486 3.665674 5.962771 -7.191080 -6.729024 7.586551 3.027862 1.470364 -35.185139 -5.019636 13.779210 -56.574986 -3.299318 8.781522 0.000000 0.000000 0.000000 73.632759 -2.914035 2.046552 -0.287259 1.376533 -1.777290 2.695508 0.849708 0.126134 0.792887 -1.949507 0.594659 0.000000 0.000000 0.000000 2.398856 -0.868614 0.885778 -7.252788 1.102658 2.036774 6.592413 7.196747 -4.834264 0.000000 0.000000 0.000000 3.466944 -1.063284 0.963395 2.662021 2.452194 7.900634 2.362928 1.364678 -1.259083 -41.656518 -56.774957 -48.208367 2.114261 -26.570908 -0.731892 0.000000 0.000000 0.000000 3.058633 -0.354391 1.698693 -2.491490 15.499992 13.337657 3.713260 7.053090 -3.555396 -34.829843 43.104371 29.243694 -0.698558 40.801081 1.371783 0.000000 0.000000 0.000000 
-0.592563 16.885900 -3.969515 0.000000 0.000000 0.000000 68.597536 -2.837568 2.707021 7.861536 10.028750 9.351817 9.145613 9.615037 4.299330 -54.382164 10.192141 -8.971282 -38.006547 0.323194 -4.202221 0.000000 0.000000 0.000000 71.511322 -7.340839 4.026670 5.389933 -7.650403 -5.963491 7.070713 2.602142 0.973335 -35.750856 -5.527959 14.042954 -55.679859 -3.220536 8.856757 0.000000 0.000000 0.000000 73.616715 -3.289187 2.279325 0.034139 1.506223 -1.752843 2.995528 0.804692 0.084481 0.602774 -1.786506 0.571127 0.000000 0.000000 0.000000 2.740286 -0.876782 0.905289 -6.672399 1.189010 2.109134 6.078180 6.754092 -4.465756 0.000000 0.000000 0.000000 3.931174 -1.077047 0.833792 2.682894 2.072284 9.481039 2.413998 0.758363 -1.500574 -39.807637 -55.294343 -45.966179 2.151834 -28.504809 -0.782198 0.000000 0.000000 0.000000 3.534837 -0.280338 1.722597 -3.078745 18.595383 13.132799 3.036110 6.300357 -3.872898 -32.233046 40.293263 26.202286 -0.654395 43.375150 1.552187 0.000000 0.000000 0.000000 
-0.716269 17.180843 -3.977577 0.000000 0.000000 0.000000 68.734434 -3.322693 2.930613 7.784391 8.439519 8.455511 8.682472 9.941548 5.327378 -55.011341 10.782326 -8.013101 -36.704023 0.108507 -3.969159 0.000000 0.000000 0.000000 71.780254 -8.074127 4.452366 4.458269 -7.951932 -5.080386 6.797141 2.260421 0.342863 -36.608680 -5.965305 14.152697 -54.548688 -3.088250 8.980295 0.000000 0.000000 0.000000 73.741741 -3.679046 2.461473 0.427316 1.716958 -1.680762 3.397564 0.853302 0.055379 0.387725 -1.721464 0.611455 0.000000 0.000000 0.000000 3.175755 -0.793992 0.886853 -6.270823 1.217749 2.299224 5.521245 6.392732 -4.193517 0.000000 0.000000 0.000000 4.505532 -0.999165 0.698739 2.736073 1.326789 11.152891 2.595646 0.200412 -1.853867 -37.948511 -53.378816 -43.361313 2.031803 -30.577862 -0.873769 0.000000 0.000000 0.000000 4.153276 -0.120538 1.726842 -3.636450 21.749296 13.075665 2.337081 5.367362 -4.215685 -30.363060 37.527334 23.461350 -0.583989 45.468409 1.746333 0.000000 0.000000 0.000000 
